# xmcd CD database file
#
# Track frame offsets:
#	150
#	19567
#	55291
#	82832
#	95072
#	117779
#	141579
#	164458
#
# Disc length: 2421 seconds
#
# Revision: 0
# Processed by: cddbd v1.5.2PL0 Copyright (c) Steve Scherf et al.
# Submitted via: CDex 1.51
#
DISCID=64097308
DTITLE=The Cracow Klezmer Band - Balan: Book of Angels, Vol. 5
DYEAR=2006
DGENRE=Jazz
TTITLE0=Zuriel
TTITLE1=Suria
TTITLE2=Dirael
TTITLE3=Kadosh
TTITLE4=Haniel
TTITLE5=Jehoel
TTITLE6=Asbeel
TTITLE7=Aniel
EXTD=YEAR: 2006
EXTT0=
EXTT1=
EXTT2=
EXTT3=
EXTT4=
EXTT5=
EXTT6=
EXTT7=
PLAYORDER=
